<svg width="32" height="32" viewBox="0 0 32 32" fill="none" xmlns="http://www.w3.org/2000/svg">
  <path d="M30.04 2.5L18.61 10.97L20.83 5.93L30.04 2.5Z" fill="#E17726" stroke="#E17726" stroke-width="0.25" stroke-linecap="round" stroke-linejoin="round"/>
  <path d="M2.66 2.5L13.99 11.05L11.87 5.93L2.66 2.5Z" fill="#E27625" stroke="#E27625" stroke-width="0.25" stroke-linecap="round" stroke-linejoin="round"/>
  <path d="M25.65 23.07L22.84 27.11L29.26 28.83L31.06 23.21L25.65 23.07Z" fill="#E27625" stroke="#E27625" stroke-width="0.25" stroke-linecap="round" stroke-linejoin="round"/>
  <path d="M1.05 23.21L2.84 28.83L9.26 27.11L6.45 23.07L1.05 23.21Z" fill="#E27625" stroke="#E27625" stroke-width="0.25" stroke-linecap="round" stroke-linejoin="round"/>
  <path d="M8.91 14.01L7.08 16.85L13.43 17.12L13.2 10.19L8.91 14.01Z" fill="#E27625" stroke="#E27625" stroke-width="0.25" stroke-linecap="round" stroke-linejoin="round"/>
  <path d="M23.19 14.01L18.8 10.11L18.65 17.12L24.92 16.85L23.19 14.01Z" fill="#E27625" stroke="#E27625" stroke-width="0.25" stroke-linecap="round" stroke-linejoin="round"/>
  <path d="M9.26 27.11L12.99 25.32L9.78 23.25L9.26 27.11Z" fill="#E27625" stroke="#E27625" stroke-width="0.25" stroke-linecap="round" stroke-linejoin="round"/>
  <path d="M19.11 25.32L22.84 27.11L22.32 23.25L19.11 25.32Z" fill="#E27625" stroke="#E27625" stroke-width="0.25" stroke-linecap="round" stroke-linejoin="round"/>
  <path d="M22.84 27.11L19.11 25.32L19.38 27.84L19.35 28.75L22.84 27.11Z" fill="#D5BFB2" stroke="#D5BFB2" stroke-width="0.25" stroke-linecap="round" stroke-linejoin="round"/>
  <path d="M9.26 27.11L12.75 28.75L12.73 27.84L12.99 25.32L9.26 27.11Z" fill="#D5BFB2" stroke="#D5BFB2" stroke-width="0.25" stroke-linecap="round" stroke-linejoin="round"/>
  <path d="M12.82 21.08L9.68 20.13L11.75 19.18L12.82 21.08Z" fill="#233447" stroke="#233447" stroke-width="0.25" stroke-linecap="round" stroke-linejoin="round"/>
  <path d="M19.28 21.08L20.35 19.18L22.43 20.13L19.28 21.08Z" fill="#233447" stroke="#233447" stroke-width="0.25" stroke-linecap="round" stroke-linejoin="round"/>
  <path d="M9.26 27.11L9.81 23.07L6.45 23.21L9.26 27.11Z" fill="#CC6228" stroke="#CC6228" stroke-width="0.25" stroke-linecap="round" stroke-linejoin="round"/>
  <path d="M22.29 23.07L22.84 27.11L25.65 23.21L22.29 23.07Z" fill="#CC6228" stroke="#CC6228" stroke-width="0.25" stroke-linecap="round" stroke-linejoin="round"/>
  <path d="M24.92 16.85L18.65 17.12L19.28 21.08L20.35 19.18L22.43 20.13L24.92 16.85Z" fill="#CC6228" stroke="#CC6228" stroke-width="0.25" stroke-linecap="round" stroke-linejoin="round"/>
  <path d="M9.68 20.13L11.75 19.18L12.82 21.08L13.43 17.12L7.08 16.85L9.68 20.13Z" fill="#CC6228" stroke="#CC6228" stroke-width="0.25" stroke-linecap="round" stroke-linejoin="round"/>
  <path d="M7.08 16.85L9.78 23.25L9.68 20.13L7.08 16.85Z" fill="#E27525" stroke="#E27525" stroke-width="0.25" stroke-linecap="round" stroke-linejoin="round"/>
  <path d="M22.43 20.13L22.32 23.25L24.92 16.85L22.43 20.13Z" fill="#E27525" stroke="#E27525" stroke-width="0.25" stroke-linecap="round" stroke-linejoin="round"/>
  <path d="M13.43 17.12L12.82 21.08L13.6 24.86L13.78 19.88L13.43 17.12Z" fill="#E27525" stroke="#E27525" stroke-width="0.25" stroke-linecap="round" stroke-linejoin="round"/>
  <path d="M18.65 17.12L18.32 19.87L18.5 24.86L19.28 21.08L18.65 17.12Z" fill="#E27525" stroke="#E27525" stroke-width="0.25" stroke-linecap="round" stroke-linejoin="round"/>
  <path d="M19.28 21.08L18.5 24.86L19.11 25.32L22.32 23.25L22.43 20.13L19.28 21.08Z" fill="#F5841F" stroke="#F5841F" stroke-width="0.25" stroke-linecap="round" stroke-linejoin="round"/>
  <path d="M9.68 20.13L9.78 23.25L12.99 25.32L13.6 24.86L12.82 21.08L9.68 20.13Z" fill="#F5841F" stroke="#F5841F" stroke-width="0.25" stroke-linecap="round" stroke-linejoin="round"/>
  <path d="M19.35 28.75L19.38 27.84L19.13 27.62H12.97L12.73 27.84L12.75 28.75L9.26 27.11L10.42 28.05L12.93 29.75H19.17L21.68 28.05L22.84 27.11L19.35 28.75Z" fill="#C0AC9D" stroke="#C0AC9D" stroke-width="0.25" stroke-linecap="round" stroke-linejoin="round"/>
  <path d="M19.11 25.32L18.5 24.86H13.6L12.99 25.32L12.73 27.84L12.97 27.62H19.13L19.38 27.84L19.11 25.32Z" fill="#161616" stroke="#161616" stroke-width="0.25" stroke-linecap="round" stroke-linejoin="round"/>
  <path d="M30.55 11.35L31.8 5.32L30.04 2.5L19.11 10.44L23.19 14.01L29.21 15.75L30.62 14.11L30.04 13.69L31.22 12.62L30.5 12.08L31.68 11.17L30.55 11.35Z" fill="#763E1A" stroke="#763E1A" stroke-width="0.25" stroke-linecap="round" stroke-linejoin="round"/>
  <path d="M0.3 5.32L1.55 11.35L0.4 11.17L1.58 12.08L0.86 12.62L2.04 13.69L1.46 14.11L2.87 15.75L8.89 14.01L12.97 10.44L2.04 2.5L0.3 5.32Z" fill="#763E1A" stroke="#763E1A" stroke-width="0.25" stroke-linecap="round" stroke-linejoin="round"/>
</svg> 